<?xml version="1.0" encoding="utf-8"?>
<!-- Generator: Adobe Illustrator 24.0.1, SVG Export Plug-In . SVG Version: 6.00 Build 0)  -->
<svg version="1.1" id="Layer_1" xmlns="http://www.w3.org/2000/svg" xmlns:xlink="http://www.w3.org/1999/xlink" x="0px" y="0px"
	 viewBox="0 0 541 265" style="enable-background:new 0 0 541 265;" xml:space="preserve">
<style type="text/css">
	.st0{display:none;fill:#EF0707;}
	.st1{fill:#2F2F38;}
	.st2{fill-rule:evenodd;clip-rule:evenodd;fill:#7B7B7B;}
	.st3{opacity:0.496;fill-rule:evenodd;clip-rule:evenodd;fill:#7B7B7B;enable-background:new    ;}
	.st4{fill:#1B1D27;}
	.st5{fill-rule:evenodd;clip-rule:evenodd;fill:#FFFFFF;}
	.st6{enable-background:new    ;}
	.st7{fill:#FFFFFF;}
</style>
<rect x="11" y="10.6" class="st0" width="486" height="242"/>
<g transform="translate(-2)">
	<g transform="translate(2)">
		<g>
			<path class="st1" d="M541,230V34c0-18.8-15.4-34.1-34.5-34l-472,0C15.5,0,0,15.2,0,34v196c0,18.8,15.4,34,34.5,34l472,0
				C525.6,264,541,248.8,541,230z M38,251c-14.2,0-27.1-13.4-27.1-27.3V39.8c0-14.5,12.7-27.3,27.1-27.3l463.9,0V251L38,251z"/>
		</g>
		<path class="st2" d="M522.6,144.6v-24.2c0-1.2-1-2.2-2.2-2.2l0,0c-1.2,0-2.2,1-2.2,2.2v24.2c0,1.2,1,2.2,2.2,2.2l0,0
			C521.6,146.8,522.6,145.8,522.6,144.6z"/>
		<ellipse class="st3" cx="520.7" cy="85.8" rx="5.1" ry="5.1"/>
		<ellipse class="st3" cx="520.7" cy="105.5" rx="5.1" ry="5.1"/>
		<ellipse class="st3" cx="520.7" cy="157.6" rx="3.2" ry="3.2"/>
		<ellipse class="st2" cx="520.7" cy="178" rx="5.1" ry="5.1"/>
		<g>
			<path class="st4" d="M527,231.3v-31c-0.1-0.3-0.1-1.3-0.1-1.7c0-2.9-2.5-3.8-8.3-3.8s-10.7-6.8-10.7-11.7V163V88.6V80
				c0-2.4,2.7-11,10.7-11.7s8.3-0.8,8.3-4.9c0-0.4,0-0.8,0.1-1.1V32.2c0-11.4-8.4-19.7-19.4-19.7h-6V251h4.8
				C519.5,251,526.9,242,527,231.3z"/>
		</g>
	</g>
	<g transform="translate(36 19)">
		<path class="st5" d="M483,210.5V221c0,0.8-0.7,1.5-1.5,1.5h-2.8c-0.8,0-1.5-0.7-1.5-1.5v-10.5c0-0.8,0.7-1.5,1.5-1.5h2.8
			C482.3,209,483,209.7,483,210.5z M481.2,222.8v0.4c0,0.2-0.2,0.4-0.5,0.4h-1.2c-0.3,0-0.5-0.2-0.5-0.4v-0.4H481.2z M482.7,210.3
			c0-0.5-0.4-1-1-1h-3.2c-0.6,0-1,0.4-1,1v10.9c0,0.5,0.4,1,1,1h3.2c0.6,0,1-0.4,1-1V210.3z M482.4,210.1v11.3
			c0,0.3-0.2,0.5-0.5,0.5h-3.5c-0.3,0-0.5-0.2-0.5-0.5v-11.3c0-0.3,0.2-0.5,0.5-0.5h3.5C482.2,209.6,482.4,209.8,482.4,210.1z"/>
		<path class="st5" d="M477.7,203.3l-1.6-1.8l1.6-1.8c0.4,0.4,0.7,1.1,0.7,1.8S478.1,202.9,477.7,203.3z M479.3,205.1l-0.8-0.9
			c0.7-0.7,1.1-1.7,1.1-2.7c0-1.1-0.4-2-1-2.7l0.8-0.9c0.8,0.9,1.4,2.2,1.4,3.6C480.7,202.9,480.2,204.2,479.3,205.1z M480.9,207
			l-0.8-0.9c1.1-1.1,1.7-2.8,1.7-4.6s-0.7-3.4-1.7-4.6l0.8-0.9c1.3,1.4,2,3.3,2,5.5C483,203.7,482.2,205.6,480.9,207z"/>
		<g transform="translate(168 4)">
			<path class="st5" d="M311.2,179.9L311.2,179.9c0,0.5-0.4,0.9-0.9,0.9H309c-0.6,0.1-1-0.3-1-0.9l0,0c0-0.5,0.4-0.9,0.9-0.9h1.4
				C310.8,179,311.2,179.4,311.2,179.9z"/>
			<path class="st5" d="M312.8,183L312.8,183c0,0.5-0.4,0.9-0.9,0.9H309c-0.6,0-1-0.4-1-0.9l0,0c0-0.5,0.4-1,0.9-1h3
				C312.4,182,312.8,182.5,312.8,183z"/>
			<path class="st5" d="M314.4,186L314.4,186c0,0.5-0.4,1-0.9,1l-4.5,0c-0.6,0-1-0.5-1-1l0,0c0-0.5,0.4-0.9,0.9-0.9h4.6
				C314,185.1,314.4,185.5,314.4,186z"/>
			<path class="st5" d="M316,189.1L316,189.1c0,0.5-0.4,0.9-0.9,0.9H309c-0.6,0-1-0.4-1-0.9l0,0c0-0.6,0.4-1,0.9-1h6.2
				C315.6,188.1,316,188.5,316,189.1z"/>
		</g>
		<g class="st6">
			<path class="st7" d="M477.4,16v1.3c-0.9,0.3-1.5,1-1.5,2c0,1.6,1.4,2.5,4,2.6v-0.1l0,0l0,0c-0.9-0.5-1.5-1.5-1.5-2.7
				c0-1.9,1.4-3.2,3.3-3.2c2,0,3.4,1.4,3.4,3.5c0,1.5-0.8,2.6-2.2,3.2c-0.8,0.3-1.7,0.4-2.8,0.4c-3.4,0-5.3-1.4-5.3-3.8
				C474.8,17.6,475.8,16.3,477.4,16z M481.7,21.6c1.3,0,2.3-1,2.3-2.3c0-1.3-1-2.2-2.3-2.2c-1.3,0-2.3,0.9-2.3,2.2
				C479.4,20.6,480.4,21.6,481.7,21.6z"/>
			<path class="st7" d="M481.1,24.6c0.5,0,0.9,0.4,0.9,0.8c0,0.5-0.4,0.9-0.9,0.9s-0.9-0.4-0.9-0.9C480.2,25,480.6,24.6,481.1,24.6z
				 M475.8,24.6c0.5,0,0.9,0.4,0.9,0.9s-0.4,0.9-0.9,0.9s-0.9-0.4-0.9-0.9S475.3,24.6,475.8,24.6z"/>
			<path class="st7" d="M477,32.4v-4.8h1.2c1.6,0.9,4,2.4,6.7,4.2v1.8h-6.7V35H477v-1.4h-2v-1.2H477z M478.1,28.8v3.6h5.6v-0.1
				C482.3,31.3,480.2,30,478.1,28.8L478.1,28.8z"/>
			<path class="st7" d="M480.6,38.3v1.2c0,1.1,0.7,1.9,1.8,1.9c1,0,1.7-0.8,1.7-1.9c0-1.1-0.6-1.9-1.7-2v-1.2
				c1.7,0.1,2.8,1.3,2.8,3.2c0,1.7-1.1,3.1-2.6,3.1c-1.2,0-2-0.6-2.3-1.7h-0.1c-0.2,1.3-1.1,2.2-2.4,2.2c-1.6,0-2.9-1.5-2.9-3.5
				s1.1-3.4,2.8-3.5v1.2c-1.1,0.1-1.7,1-1.7,2.3s0.8,2.2,1.9,2.2c1.1,0,1.9-0.9,1.9-2.3v-1.3L480.6,38.3L480.6,38.3z"/>
		</g>
	</g>
</g>
</svg>
