<?xml version="1.0" encoding="utf-8"?>
<!-- Generator: Adobe Illustrator 24.0.1, SVG Export Plug-In . SVG Version: 6.00 Build 0)  -->
<svg version="1.1" id="Layer_1" xmlns="http://www.w3.org/2000/svg" xmlns:xlink="http://www.w3.org/1999/xlink" x="0px" y="0px"
	 viewBox="0 0 230 90" style="enable-background:new 0 0 230 90;" xml:space="preserve">
<style type="text/css">
	.st0{filter:url(#Adobe_OpacityMaskFilter);}
	.st1{fill:url(#SVGID_1_);}
	.st2{mask:url(#shadow_backs_merged_2_);}
	.st3{display:none;}
	.st4{fill:#E7F7F7;}
	.st5{fill:#FFFFFF;}
	.st6{fill:#ADACAC;}
	.st7{fill:#DA112A;}
	.st8{fill:#F4627D;}
	.st9{fill:#A01029;}
</style>
<g id="logo">
	<g id="isolated">
		<defs>
			<filter id="Adobe_OpacityMaskFilter" filterUnits="userSpaceOnUse" x="8.7" y="4.5" width="213" height="104.1">
				<feColorMatrix  type="matrix" values="1 0 0 0 0  0 1 0 0 0  0 0 1 0 0  0 0 0 1 0"/>
			</filter>
		</defs>
		<mask maskUnits="userSpaceOnUse" x="8.7" y="4.5" width="213" height="104.1" id="shadow_backs_merged_2_">
			<g class="st0">
				<linearGradient id="SVGID_1_" gradientUnits="userSpaceOnUse" x1="121.3899" y1="-6.2098" x2="121.3899" y2="89.3659">
					<stop  offset="0.6204" style="stop-color:#FFFFFF"/>
					<stop  offset="0.6801" style="stop-color:#C2C2C2"/>
					<stop  offset="0.7437" style="stop-color:#878787"/>
					<stop  offset="0.8053" style="stop-color:#575757"/>
					<stop  offset="0.8632" style="stop-color:#313131"/>
					<stop  offset="0.9166" style="stop-color:#161616"/>
					<stop  offset="0.9638" style="stop-color:#060606"/>
					<stop  offset="1" style="stop-color:#000000"/>
				</linearGradient>
				<rect x="15.9" y="-6.2" class="st1" width="210.9" height="95.6"/>
			</g>
		</mask>
		<g id="shadow_backs_merged_1_" class="st2">
			<g style="opacity:0.4;">
				
					<image style="overflow:visible;" width="213" height="103" xlink:href="2AC2DF3A17CEC236.png"  transform="matrix(1 0 0 1 8.6606 5.6606)">
				</image>
			</g>
			<g>
				<path d="M209.9,52.1h0.1v-0.7h0.3V35.2l-5.2,0c-2.3,0-9.6,0-11.2,0c-2.8,0-5.4,0.7-7.5,1.9c-2.2-1.2-4.8-1.9-7.7-1.9
					c-1.9,0-6.9,0-8.8,0l-0.2,0c-0.3,0-0.6,0-1,0v-4.3h6v-0.5h0.1v-0.5h0.1v-0.5h0.1v-0.5h0.1v-0.5h0.1v-0.5h0.1v-0.5h0.1v-0.5h0.1
					v-0.5h0.1v-0.5h0.1v-0.5h0.1v-0.5h0.1v-0.5h0.1v-0.5h0.1v-0.5h0.1v-0.5h0.1v-0.5h0.1v-0.5h0.1v-0.5h0.1v-0.5h0.1v-0.5h0.1V4.6
					h-33.3c-1.9,0-6.9,0-8.8,0l-0.2,0c-1.8,0-3.7,0-5.5,0h-5.5v0.5h0v0.5h0v0.5h0v0.5h0v0.5h0v0.2l-1.3-2.8h-12l-1,2.3V6.7h0V6.2h0
					V5.7h0V5.1h0V4.6H95.8l-4,9.1l-4-9.1h-6.3V4.5l-4.7,0c-2.3,0-8.9,0-10.5,0c-9.2,0.1-14,6.8-14,13.4c0,1.3,0.2,2.4,0.4,3.5
					c0,0.2,0.1,0.3,0.1,0.5c0,0.2,0.1,0.3,0.1,0.5c0,0.2,0.1,0.3,0.1,0.5c0,0.2,0.1,0.3,0.1,0.5c0,0.2,0.1,0.3,0.1,0.5
					c0,0.1,0,0.2,0.1,0.3H52v10.9c-1.5,0-2.9,0-4.4,0h-6v0.2c-0.9-0.2-1.8-0.2-2.8-0.2c-1.9,0-6.4,0-8.2,0l-0.2,0
					c-1.8,0-3.6,0-5.4,0h-6V71h0.3v0.7h0.3v0.7h0.3v0.7h0.3v0.7h0.3v0.7h0.3v0.7h0.3v0.7h0.3v0.7h0.3v0.7h0.3v0.7h0.3v0.7H23v0.7
					h0.3V80h0.3v0.7H24v0.7h0.3V82h0.3v0.7H25v0.7h0.3v0.7h0.3v0.7H26v0.7h15.4v-7.6h2.9v0h0.3v0.7h0.3v0.7h0.3V80h0.3v0.7h0.3v0.7
					h0.3V82h0.3v0.7h0.3v0.7h0.3v0.7h0.3v0.7h0.3v0.7h15.4v-6.1l5.3,6.1h9v0l4.9,0H85v0h0.7l8.8,0c3.4,0,5.8-0.8,7.5-2
					c2.2,1.2,5,2,8.7,2c2.2,0,4.3-0.3,6.2-1v0.3h0v0.7h15.4v-0.7h0v-0.7h0v-0.7h0v-0.7h0V82h0v-0.7h0v-0.1l3.2,4.2h4.2h3.1h11.7h8.5
					h6.9v-0.7h0.2v-0.7h0.2v-0.7h0.2v-0.7h0.2V82h0.2v-0.7h0.2v-0.5l4,4.6h15.7l5.7,0l-0.7-0.7c0.6,0,1,0,1,0l-0.3-0.3
					c2.9-1.1,5-3.1,6.1-5.8c0.1-0.2,0.2-0.4,0.3-0.7c0.1-0.3,0.2-0.5,0.4-0.8c0.1-0.2,0.2-0.5,0.3-0.7c0.1-0.2,0.2-0.5,0.3-0.7
					c0.1-0.2,0.2-0.5,0.3-0.7c0.1-0.2,0.2-0.4,0.3-0.6c0.1-0.2,0.2-0.5,0.3-0.7c0.1-0.2,0.2-0.5,0.3-0.7c0.1-0.2,0.2-0.5,0.3-0.7
					c0.1-0.2,0.2-0.5,0.3-0.7c0.1-0.3,0.2-0.5,0.4-0.8c0.1-0.2,0.2-0.5,0.3-0.7c0.1-0.2,0.2-0.4,0.3-0.6c0.1-0.2,0.2-0.5,0.3-0.7
					c0.1-0.2,0.2-0.4,0.3-0.7c0.1-0.2,0.2-0.5,0.3-0.7c0.1-0.2,0.2-0.5,0.3-0.8c0.1-0.2,0.2-0.5,0.3-0.7c0.1-0.2,0.2-0.5,0.3-0.7
					c0.1-0.2,0.2-0.5,0.3-0.7c0.9-1.7,1.3-3.7,1.3-6C211,55.9,210.6,53.8,209.9,52.1z"/>
			</g>
		</g>
		<path id="smart_back_1_" class="st3" d="M177.5,4.6h-33.3c-1.9,0-6.9,0-8.8,0l-0.2,0c-1.8,0-3.7,0-5.5,0h-5.5v0.5h0v0.5h0v0.5h0
			v0.5h0v0.5h0v0.2l-1.3-2.8h-12l-1,2.3V6.7h0V6.2h0V5.7h0V5.1h0V4.6H95.8l-4,9.1l-4-9.1h-6.3V4.5l-4.7,0c-2.3,0-8.9,0-10.5,0
			c-9.2,0.1-14,6.8-14,13.4c0,1.3,0.2,2.4,0.4,3.5c0,0.2,0.1,0.3,0.1,0.5c0,0.2,0.1,0.3,0.1,0.5c0,0.2,0.1,0.3,0.1,0.5
			c0,0.2,0.1,0.3,0.1,0.5c0,0.2,0.1,0.3,0.1,0.5c0,0.1,0,0.2,0.1,0.3H52v15.1l0.1,0v0.5h0.1v0.5l0.1,0v0.5l0.1,0v0.5h0.1v0.5l0.1,0
			v0.5h0.1v0.5H53V43l0.1,0v0.5h0.1V44l0.1,0v0.5l0.1,0v0.5l0.1,0v0.5l0.1,0v0.5h0.1v0.5H54v0.5l0.1,0v0.5l0.1,0v0.5h0.1v0.5l0.1,0
			v0.5l0.1,0v0.5l4.5,0c2.2,0,11.7,0,13.2,0c1.1,0,2.1-0.1,3-0.2V49h11.7l0.1,0.1h10.9l0.1-0.1h7.4l4.5,0h2.2l2-4.3h5.2l1.9,4.3
			h17.3v-0.5h0v-0.5h0v-0.5h0v-0.5h0v-0.5h0v-0.5h0v-0.5h0v-0.5h0v-0.5h0v-0.5h0v-0.5h0v-0.5h0V43h0v-0.4l5.5,6.4h21.9v-0.5h0.1
			v-0.5h0.1v-0.5h0.1v-0.5h0.1v-0.5h0.1v-0.5h0.1v-0.5h0.1v-0.5h0.1v-0.5h0.1v-0.5h0.1v-0.5h0.1v-0.5h0.1V43h0.1v-0.5h0.1v-0.5h0.1
			v-0.5h0.1v-0.5h0.1v-0.5h0.1v-0.5h0.1v-0.5h0.1v-0.5h0.1v-8.5h6v-0.5h0.1v-0.5h0.1v-0.5h0.1v-0.5h0.1v-0.5h0.1v-0.5h0.1v-0.5h0.1
			v-0.5h0.1v-0.5h0.1v-0.5h0.1v-0.5h0.1v-0.5h0.1v-0.5h0.1v-0.5h0.1v-0.5h0.1v-0.5h0.1v-0.5h0.1v-0.5h0.1v-0.5h0.1v-0.5h0.1v-0.5
			h0.1V4.6z"/>
		<path d="M203.7,77.3c0.1-0.2,0.2-0.5,0.3-0.7c0.1-0.2,0.2-0.5,0.3-0.7c0.1-0.2,0.2-0.5,0.3-0.7c0.1-0.2,0.2-0.4,0.3-0.6
			c0.1-0.2,0.2-0.5,0.3-0.7c0.1-0.2,0.2-0.5,0.3-0.7c0.1-0.2,0.2-0.5,0.3-0.7c0.1-0.2,0.2-0.5,0.3-0.7c0.1-0.3,0.2-0.5,0.4-0.8
			c0.1-0.2,0.2-0.5,0.3-0.7c0.1-0.2,0.2-0.4,0.3-0.6c0.1-0.2,0.2-0.5,0.3-0.7c0.1-0.2,0.2-0.4,0.3-0.7c0.1-0.2,0.2-0.5,0.3-0.7
			c0.1-0.2,0.2-0.5,0.3-0.8c0.1-0.2,0.2-0.5,0.3-0.7c0.1-0.2,0.2-0.5,0.3-0.7c0.1-0.2,0.2-0.5,0.3-0.7c0.9-1.7,1.3-3.7,1.3-6
			c0.2-2.7-0.3-4.8-1-6.5h0.1v-0.7h0.3V35.2l-5.2,0c-2.3,0-9.6,0-11.2,0c-2.8,0-5.4,0.7-7.5,1.9c-2.2-1.2-4.8-1.9-7.7-1.9
			c-1.9,0-6.9,0-8.8,0l-0.2,0c-0.8,0-1.6,0-2.4,0v0h-21.6v0h-14.2v0.8h0v0.8h0v0.8h0v0.8h0v0.3l-2.7-3.5h-12.5v0.6
			c-2-0.7-4.3-1.1-6.6-1.1c-1.7,0-3.3,0.2-4.8,0.6v0l-5.2,0c-2.3,0-10,0-11.6,0c-2.2,0-4.1,0.4-5.8,1v-0.3h-0.1v-0.8H65.6v0.4
			c-1.1-0.2-2.3-0.4-3.5-0.4c-1.9,0-6.9,0-8.8,0l-0.2,0c-1.8,0-3.7,0-5.5,0h-6v0.2c-0.9-0.2-1.8-0.2-2.8-0.2c-1.9,0-6.4,0-8.2,0
			l-0.2,0c-1.8,0-3.6,0-5.4,0h-6V71h0.3v0.7h0.3v0.7h0.3v0.7h0.3v0.7h0.3v0.7h0.3v0.7h0.3v0.7h0.3v0.7h0.3v0.7h0.3v0.7h0.3v0.7H23
			v0.7h0.3V80h0.3v0.7H24v0.7h0.3V82h0.3v0.7H25v0.7h0.3v0.7h0.3v0.7H26v0.7h15.4v-7.6h2.9v0h0.3v0.7h0.3v0.7h0.3V80h0.3v0.7h0.3
			v0.7h0.3V82h0.3v0.7h0.3v0.7h0.3v0.7h0.3v0.7h0.3v0.7h15.4v-6.1l5.3,6.1h9v0l4.9,0H85v0h0.7l8.8,0c3.4,0,5.8-0.8,7.5-2
			c2.2,1.2,5,2,8.7,2c2.2,0,4.3-0.3,6.2-1v0.3h0v0.7h15.4v-0.7h0v-0.7h0v-0.7h0v-0.7h0V82h0v-0.7h0v-0.1l3.2,4.2h4.2h3.1h11.7h8.5
			h6.9v-0.7h0.2v-0.7h0.2v-0.7h0.2v-0.7h0.2V82h0.2v-0.7h0.2v-0.5l4,4.6h15.7l5.7,0l-0.7-0.7c0.6,0,1,0,1,0l-0.3-0.3
			c2.9-1.1,5-3.1,6.1-5.8c0.1-0.2,0.2-0.4,0.3-0.7C203.5,77.8,203.6,77.6,203.7,77.3"/>
		<path class="st4" d="M144.1,9.2c-1.9,0-6.9,0-8.8,0c-1.9,0-3.8,0-5.7,0h-0.8v20.2l-9.1-20.2h-5.9l-8.8,19.6V9.3h-6.3l-7.1,16
			l-7.1-16h-6.4v13.4c-1.5-3.2-4.8-3.4-4.8-3.4l-7.3,0c-2.4,0-3.3-0.7-3.3-2.1c0-1.4,0.9-2.2,3.3-2.2h10.4V9.2c-2.3,0-8.9,0-10.4,0
			c-6.4,0-9.4,4.5-9.4,8.7c0,8.3,9.1,7.4,13.7,7.3c2.3,0,3.1,0.7,3.1,1.9c0.1,1.2-0.9,1.8-3.3,1.8H56.7v5.8c2.3,0,12.3,0,13.8,0
			c4.4,0,6.8-1.6,7.8-3.9v3.9h6.1V24.1L89,34.8h5.3L99.1,24v10.6h6.1v0h4l2-4.5h11.4l2,4.5h4.3h2.3h3.7v-8h6.3l6.9,8l7.9,0l-8-8.8
			c3.4-1.2,5.4-4,5.4-7.9c0-0.8-0.1-1.5-0.3-2.3h5v19h6.1v-19h8.6V9.2H144.1z M114,23.6l2.9-6.7l2.8,6.7H114z M147.4,18.2
			c0,1.5-0.9,2.4-3.3,2.4h-9.2v-4.9h9.2C146.6,15.6,147.4,16.8,147.4,18.2"/>
		<polygon class="st5" points="91.8,26.3 98.8,10.3 105.1,10.3 105.1,9.3 98.8,9.3 91.8,25.3 84.7,9.3 78.4,9.3 78.4,10.3 
			84.7,10.3 		"/>
		<path class="st5" d="M66.3,19.3c-2.1,0-3.1-0.5-3.3-1.6c0,0.2,0,0.3,0,0.5c0,1.5,0.9,2.1,3.3,2.1l7.3,0c0,0,3.3,0.2,4.8,3.4v-1
			c-1.5-3.2-4.8-3.4-4.8-3.4L66.3,19.3z"/>
		<path class="st5" d="M66.3,10.3c1.5,0,8.1,0,10.4,0v-1c-2.3,0-8.9,0-10.4,0c-6.4,0-9.4,4.5-9.4,8.7c0,0.2,0,0.4,0,0.6
			C57.2,14.5,60.2,10.3,66.3,10.3"/>
		<polygon class="st5" points="119.7,24.7 119.2,23.6 114.4,23.6 114,24.7 		"/>
		<polygon class="st5" points="105.1,29.9 113.9,10.3 119.8,10.3 128.9,30.5 128.9,29.4 119.8,9.2 113.9,9.2 105.1,28.8 		"/>
		<path class="st5" d="M153.4,16.7h-0.2c0.2,0.6,0.3,1.2,0.3,1.8c0-0.2,0-0.4,0-0.5C153.5,17.5,153.5,17.1,153.4,16.7"/>
		<path class="st5" d="M148.1,26.9l7,7.8h0.9l-7.3-8C148.6,26.7,148.3,26.8,148.1,26.9"/>
		<path class="st5" d="M144.1,9.2c-1.9,0-6.9,0-8.8,0c-1.9,0-3.8,0-5.7,0h-0.8v1h0.8c1.9,0,3.8,0,5.7,0c1.9,0,6.9,0,8.8,0h28.6v-1
			H144.1z"/>
		<path class="st5" d="M73.8,28.1c0-0.2,0-0.4-0.1-0.5c-0.2,0.8-1.2,1.3-3.2,1.3H56.7v1h13.8C73,29.9,73.9,29.3,73.8,28.1"/>
		<path class="st5" d="M144.1,21.6c2.4,0,3.3-0.9,3.3-2.4c0-0.2,0-0.3,0-0.5c-0.2,1.2-1.1,1.9-3.3,1.9h-9.2v1H144.1z"/>
		<polygon class="st6" points="116.9,15.9 114,22.6 114.4,22.6 116.9,17 119.2,22.6 119.7,22.6 		"/>
		<path class="st6" d="M66.3,15h10.4v-1H66.3c-2.4,0-3.3,0.8-3.3,2.2c0,0.2,0,0.4,0,0.5C63.3,15.6,64.2,15,66.3,15"/>
		<path class="st6" d="M158.2,14.6h-5c0.1,0.3,0.2,0.7,0.2,1h4.8V14.6z"/>
		<path class="st6" d="M144.1,14.6h-9.2v1h9.2c2.1,0,3.1,0.9,3.3,2c0-0.2,0-0.3,0-0.5C147.4,15.7,146.6,14.6,144.1,14.6"/>
		<path class="st6" d="M153.5,17.9c0-0.2,0-0.3,0-0.5c-0.2,3.6-2.1,6.3-5.4,7.4l0.7,0.8C151.8,24.3,153.5,21.6,153.5,17.9"/>
		<path class="st6" d="M70.7,25.2c2,0,2.8,0.5,3.1,1.3c0-0.2,0.1-0.3,0.1-0.5c0-1.2-0.8-1.9-3.1-1.9c-4.5,0.1-13.3,1-13.7-6.7
			c0,0.2,0,0.3,0,0.5C57,26.3,66.1,25.3,70.7,25.2"/>
		<polygon class="st6" points="128.9,33.6 124.6,33.6 122.6,29.1 111.2,29.1 109.1,33.6 105.1,33.6 105.1,33.6 99.1,33.6 99.1,34.7 
			105.1,34.7 105.1,34.6 109.1,34.6 111.2,30.1 122.6,30.1 124.6,34.6 128.9,34.6 131.2,34.6 134.9,34.6 134.9,33.6 131.2,33.6 		
			"/>
		<rect x="158.2" y="33.6" class="st6" width="6.1" height="1"/>
		<path class="st6" d="M78.4,29.7c-1,2.3-3.4,3.8-7.8,3.9c-1.5,0-11.5,0-13.8,0v1c2.3,0,12.3,0,13.8,0c4.4,0,6.8-1.6,7.8-3.9V29.7z"
			/>
		<polygon class="st6" points="148.2,33.6 141.3,25.6 134.9,25.6 134.9,26.7 141.3,26.7 148.2,34.6 156.1,34.6 155.1,33.6 		"/>
		<rect x="164.2" y="14.6" class="st6" width="8.6" height="1"/>
		<polygon class="st6" points="99.1,23 94.3,33.8 89,33.8 84.4,23 84.4,24.1 89,34.8 94.3,34.8 99.1,24 		"/>
		<rect x="78.4" y="33.6" class="st6" width="6.1" height="1"/>
		<path class="st7" d="M70.2,45.7c-1.2-2.9-4-5.4-8.7-5.4c-1.9,0-6.9,0-8.8,0c-1.9,0-3.8,0-5.7,0h-0.8v3.9c-1.8-2.6-4.9-4-8-4
			c-1.9,0-6.3,0-8.2,0c-1.9,0-3.7,0-5.6,0h-0.8v25.5h6.1v-8.1h8.6c2.9,0,5.8-0.6,7.5-2.5c0.2-0.2,0.3-0.4,0.5-0.5v11.1h6.1v-8h6.3
			l6.9,8h4.7h3.2h2.8V40.3h-6V45.7z M38.3,51.5h-8.6v-4.9h8.6c2.4,0,3.5,1,3.5,2.6C41.8,51.1,39.4,51.5,38.3,51.5 M61.5,51.7h-9.2
			v-4.9h9.2c2.4,0,3.3,1.1,3.3,2.5C64.8,50.7,63.9,51.7,61.5,51.7 M65.5,56.9c2.3-0.8,3.9-2.3,4.8-4.4v9.7L65.5,56.9z"/>
		<path class="st7" d="M136.2,53.6l-10.5-13.3h-4.8v7c-0.6-1.5-1.5-2.8-2.6-3.9c-2.3-2.4-5.5-3.6-9.3-3.6c-4,0-7.4,1.5-9.8,4.2
			c-0.1,0.1-0.2,0.2-0.2,0.3v-3.9c-2.3,0-10,0-11.6,0c-6.4,0-9.4,4.5-9.4,8.7c0,8.3,8,7.4,12.7,7.3c2.3,0,3.1,0.7,3.1,1.9
			c0,1.2-0.9,1.8-3.3,1.8H78v5.7c2.3,0,12.1,0,13.6,0c4.7,0,6.5-1.8,7.1-4.3c2.1,2.6,5.5,4.3,10.3,4.3c6.2,0,10.1-3,11.8-7.1v7.1
			h6.1V51.1l11.3,14.7h4V40.2h-6.1V53.6z M93.6,50.5l-6.2,0c-2.4,0-3.3-0.7-3.3-2.1c0-1.4,0.9-2.2,3.3-2.2h10.3
			c-0.9,1.5-1.4,3.3-1.6,5.1C94.8,50.5,93.6,50.5,93.6,50.5 M109,60.5c-6.4,0-7-5.6-7-7.3c-0.1-2.3,0.7-4.4,2.1-5.8
			c1.2-1.3,2.9-1.9,5-1.9c2,0,3.7,0.6,4.9,1.9c1.4,1.4,2.1,3.5,2.1,5.8C116,56.7,114.1,60.5,109,60.5"/>
		<path class="st7" d="M201.5,50.5l-6.2,0c-2.4,0-3.3-0.7-3.3-2.1c0-1.4,0.9-2.2,3.3-2.2h11.1v-5.8c-2.3,0-9.6,0-11.1,0
			c-3.6,0-6.1,1.4-7.6,3.4c-1.5-2-4-3.5-7.7-3.5c-1.9,0-6.9,0-8.8,0c-1.9,0-3.8,0-5.7,0h-0.8v25.5h6.1v-8h6.3l6.9,8h7.9l0,0
			c2.8,0,5.6,0,6.5,0c6.4,0,8.5-3.2,8.5-7.4C207.4,50.8,201.5,50.5,201.5,50.5 M170.8,51.7v-4.9h9.2c2.4,0,3.3,1.1,3.3,2.5
			c0,1.5-0.9,2.4-3.3,2.4H170.8z M198.4,60.1h-11.6l-2.8-3.1c1.6-0.5,2.9-1.4,3.8-2.6c2.6,2.6,7.6,2.1,10.8,2.1
			c2.3,0,3.1,0.7,3.1,1.9C201.8,59.4,200.9,60.1,198.4,60.1"/>
		<polygon class="st7" points="144.1,65.8 163.5,65.8 163.5,59.1 150.1,59.1 150.1,56.2 163,56.2 163,50 150.1,50 150.1,46.6 
			163.5,46.6 163.5,40.3 144.1,40.3 		"/>
		<g id="bevel2_1_">
			<g>
				<path class="st8" d="M61.5,52.7c2.4,0,3.3-0.9,3.3-2.4c0-0.2,0-0.3,0-0.5c-0.2,1.2-1.1,1.9-3.3,1.9h-9.2v1H61.5z"/>
				<path class="st8" d="M52.7,41.4c1.9,0,6.9,0,8.8,0c4.7,0,7.6,2.5,8.7,5.4v-1c-1.2-2.9-4-5.4-8.7-5.4c-1.9,0-6.9,0-8.8,0
					c-1.9,0-3.8,0-5.7,0h-0.8v1H47C48.9,41.3,50.8,41.4,52.7,41.4"/>
				<path class="st8" d="M70.2,63.3v-1l-4.1-4.5c-0.2,0.1-0.5,0.2-0.7,0.3L70.2,63.3z"/>
				<rect x="70.2" y="40.3" class="st8" width="6" height="1"/>
				<path class="st8" d="M38.3,52.5c1.1,0,3.5-0.4,3.5-2.3c0-0.2,0-0.4-0.1-0.6c-0.3,1.5-2.5,1.9-3.5,1.9h-8.6v1H38.3z"/>
				<path class="st8" d="M30.1,41.3c1.9,0,6.3,0,8.2,0c3.1,0,6.2,1.4,8,4v-1c-1.8-2.6-4.9-4-8-4c-1.9,0-6.3,0-8.2,0
					c-1.9,0-3.7,0-5.6,0h-0.8v1h0.8C26.3,41.3,28.2,41.3,30.1,41.3"/>
				<path class="st8" d="M87.4,51.5l6.2,0c0,0,1.2,0.1,2.5,0.8c0.2-1.9,0.8-3.6,1.6-5.1h-0.5c-0.6,1.3-0.9,2.7-1.1,4.1
					c-1.3-0.8-2.5-0.8-2.5-0.8l-6.2,0c-2.1,0-3.1-0.5-3.3-1.6c0,0.2,0,0.3,0,0.5C84.1,50.8,85,51.5,87.4,51.5"/>
				<path class="st8" d="M109,61.6c5.1,0,7-3.8,7-7.4c0-0.2,0-0.5,0-0.7c-0.2,3.5-2.1,7-7,7c-6,0-6.9-5-7-7c0,0.2,0,0.5,0,0.7
					C102,56,102.6,61.6,109,61.6"/>
				<polygon class="st8" points="136.2,54.6 136.2,53.6 125.6,40.3 120.8,40.3 120.8,41.3 125.6,41.3 				"/>
				<path class="st8" d="M93.8,59.3c0-0.2,0-0.4-0.1-0.5c-0.2,0.8-1.2,1.3-3.2,1.3H78v1h12.5C93,61.1,93.9,60.5,93.8,59.3"/>
				<rect x="136.2" y="40.2" class="st8" width="6.1" height="1"/>
				<path class="st8" d="M87.4,41.4c1.5,0,9.3,0,11.6,0v-1c-2.3,0-10,0-11.6,0c-6.4,0-9.4,4.5-9.4,8.7c0,0.2,0,0.4,0,0.6
					C78.2,45.7,81.2,41.5,87.4,41.4"/>
				<path class="st8" d="M99,45.4c0.1-0.1,0.2-0.2,0.2-0.3c2.4-2.7,5.8-4.2,9.8-4.2c3.7,0,6.9,1.3,9.3,3.6c1.1,1.1,2,2.4,2.6,3.9v-1
					c-0.6-1.5-1.5-2.8-2.6-3.9c-2.3-2.4-5.5-3.6-9.3-3.6c-4,0-7.4,1.5-9.8,4.2c-0.1,0.1-0.2,0.2-0.2,0.3V45.4z"/>
				<rect x="150.1" y="59.1" class="st8" width="13.4" height="1"/>
				<rect x="144.1" y="40.3" class="st8" width="19.4" height="1"/>
				<rect id="E_10_" x="150.1" y="50" class="st8" width="12.9" height="1"/>
				<path class="st8" d="M180,52.7c2.4,0,3.3-0.9,3.3-2.4c0-0.2,0-0.3,0-0.5c-0.2,1.2-1.1,1.9-3.3,1.9h-9.2v1H180z"/>
				<path class="st8" d="M186.8,61.1h11.6c2.4,0,3.4-0.6,3.3-1.8c0-0.2,0-0.4-0.1-0.5c-0.2,0.8-1.2,1.3-3.2,1.3h-11.6l-2.1-2.4
					c-0.2,0.1-0.5,0.2-0.7,0.3L186.8,61.1z"/>
				<path class="st8" d="M171.2,41.4c1.9,0,6.9,0,8.8,0c3.6,0,6.2,1.5,7.7,3.5c1.5-2,4-3.4,7.6-3.4c1.5,0,8.8,0,11.1,0v-1
					c-2.3,0-9.6,0-11.1,0c-3.6,0-6.1,1.4-7.6,3.4c-1.5-2-4-3.5-7.7-3.5c-1.9,0-6.9,0-8.8,0c-1.9,0-3.8,0-5.7,0h-0.8v1h0.8
					C167.5,41.3,169.3,41.4,171.2,41.4"/>
				<path class="st8" d="M201.5,50.5l-6.2,0c-2.1,0-3.1-0.5-3.3-1.6c0,0.2,0,0.3,0,0.5c0,1.5,0.9,2.1,3.3,2.1l6.2,0
					c0,0,5.2,0.3,5.4,6.5C207.2,50.8,201.5,50.5,201.5,50.5"/>
			</g>
		</g>
		<g id="bevel3_1_">
			<path class="st9" d="M65.5,55.9l0.7,0.8c1.9-0.8,3.3-2.2,4.1-4.1v-1C69.4,53.6,67.8,55.1,65.5,55.9"/>
			<path class="st9" d="M38.3,45.5h-8.6v1h8.6c2.1,0,3.2,0.7,3.5,2c0-0.1,0.1-0.3,0.1-0.4C41.8,46.5,40.7,45.5,38.3,45.5"/>
			<path class="st9" d="M61.5,45.7h-9.2v1h9.2c2.1,0,3.1,0.9,3.3,2c0-0.2,0-0.3,0-0.5C64.8,46.8,63.9,45.7,61.5,45.7"/>
			<rect x="23.7" y="64.8" class="st9" width="6.1" height="1"/>
			<polygon class="st9" points="70.2,64.8 65.6,64.8 58.6,56.7 52.3,56.7 52.3,57.8 58.6,57.8 65.6,65.8 70.2,65.8 73.4,65.8 
				76.2,65.8 76.2,64.8 73.4,64.8 			"/>
			<rect x="46.3" y="64.8" class="st9" width="6.1" height="1"/>
			<path class="st9" d="M46.3,53.6c-0.1,0.2-0.3,0.4-0.5,0.6c-1.7,1.9-4.6,2.5-7.5,2.5h-8.6v1h8.6c2.9,0,5.8-0.6,7.5-2.5
				c0.2-0.2,0.3-0.4,0.5-0.5V53.6z"/>
			<path class="st9" d="M113.9,46.3c-1.2-1.2-2.9-1.9-4.9-1.9c-2.1,0-3.7,0.6-5,1.9c-1.4,1.4-2.1,3.5-2.1,5.8c0,0.1,0,0.2,0,0.3
				c0.1-2,0.8-3.8,2.1-5.1c1.2-1.3,2.9-1.9,5-1.9c2,0,3.7,0.6,4.9,1.9c1.2,1.3,2,3.1,2.1,5.2c0-0.1,0-0.2,0-0.4
				C116.1,49.8,115.3,47.7,113.9,46.3"/>
			<path class="st9" d="M90.7,56.4c2,0,2.8,0.5,3.1,1.3c0-0.2,0.1-0.3,0.1-0.5c0-1.2-0.8-1.9-3.1-1.9c-4.5,0.1-12.3,1-12.7-6.7
				c0,0.1,0,0.3,0,0.4C78,57.4,86.1,56.5,90.7,56.4"/>
			<path class="st9" d="M87.4,45.1c-2.4,0-3.3,0.8-3.3,2.2c0,0.2,0,0.4,0,0.5c0.2-1.1,1.1-1.7,3.3-1.7h9.8c0.2-0.4,0.3-0.7,0.5-1
				H87.4z"/>
			<path class="st9" d="M120.8,57.7c-1.8,4.1-5.6,7.1-11.8,7.1c-4.8,0-8.1-1.7-10.3-4.3c-0.6,2.6-2.4,4.3-7.1,4.3
				c-1.5,0-11.3,0-13.6,0v1c2.3,0,12.1,0,13.6,0c4.7,0,6.5-1.8,7.1-4.3c2.1,2.6,5.5,4.3,10.3,4.3c6.2,0,10.1-3,11.8-7.1V57.7z"/>
			<polygon class="st9" points="126.9,50.1 126.9,51.1 138.2,65.8 142.2,65.8 142.2,64.8 138.2,64.8 			"/>
			<rect x="120.8" y="64.8" class="st9" width="6.1" height="1"/>
			<rect id="E_8_" x="144.1" y="64.8" class="st9" width="19.4" height="1"/>
			<rect id="E_7_" x="150.1" y="55.2" class="st9" width="12.9" height="1"/>
			<rect id="E_6_" x="150.1" y="45.5" class="st9" width="13.4" height="1"/>
			<path class="st9" d="M206.4,45.1h-11.1c-2.4,0-3.3,0.8-3.3,2.2c0,0.2,0,0.4,0,0.5c0.2-1.1,1.1-1.7,3.3-1.7h11.1V45.1z"/>
			<path class="st9" d="M180,45.7h-9.2v1h9.2c2.1,0,3.1,0.9,3.3,2c0-0.2,0-0.3,0-0.5C183.3,46.8,182.5,45.7,180,45.7"/>
			<path class="st9" d="M206.9,57.4c0,4.2-2.1,7.3-8.5,7.4c-0.8,0-3.7,0-6.5,0l0,0h-7.9l-6.9-8h-6.3v1h6.3l6.9,8h7.9l0,0
				c2.8,0,5.6,0,6.5,0c6.4,0,8.5-3.2,8.5-7.4c0-0.5,0-1,0-1.5C206.9,57.1,206.9,57.2,206.9,57.4"/>
			<rect x="164.8" y="64.8" class="st9" width="6.1" height="1"/>
			<path class="st9" d="M198.6,55.4c-3.3,0.1-8.2,0.5-10.8-2.1c-0.9,1.2-2.2,2.1-3.8,2.6l0.7,0.8c1.3-0.5,2.3-1.3,3.1-2.4
				c2.6,2.6,7.6,2.1,10.8,2.1c2,0,2.8,0.5,3.1,1.3c0-0.2,0.1-0.3,0.1-0.5C201.7,56,200.9,55.4,198.6,55.4"/>
		</g>
	</g>
</g>
</svg>
